<svg width="1824" height="389" viewBox="0 0 1824 389" fill="none" xmlns="http://www.w3.org/2000/svg">
<path d="M173.04 190.34H122.09V357.82C122.09 367.47 119.94 374.62 115.64 379.29C111.34 383.95 105.78 386.29 98.97 386.29C92.16 386.29 86.41 383.93 82.07 379.21C77.72 374.49 75.54 367.36 75.54 357.82V190.34H24.59C16.62 190.34 10.7 188.59 6.82 185.07C2.94 181.56 1 176.92 1 171.15C1 165.38 3.02 160.46 7.05 157C11.08 153.54 16.93 151.81 24.58 151.81H173.03C181.1 151.81 187.1 153.59 191.04 157.16C194.97 160.73 196.94 165.39 196.94 171.16C196.94 176.93 194.95 181.57 190.96 185.08C186.97 188.59 181 190.35 173.03 190.35L173.04 190.34Z" fill="#802981" stroke="#802981" stroke-width="2" stroke-miterlimit="10"/>
<path d="M603.76 356.24L592.75 327.31H499.03L488.02 356.87C483.72 368.4 480.05 376.19 477.01 380.22C473.97 384.25 468.99 386.27 462.07 386.27C456.2 386.27 451.01 384.12 446.5 379.82C441.99 375.52 439.74 370.65 439.74 365.2C439.74 362.05 440.26 358.81 441.31 355.45C442.36 352.1 444.09 347.43 446.5 341.45L505.47 191.74C507.15 187.44 509.17 182.28 511.52 176.25C513.88 170.22 516.4 165.22 519.07 161.23C521.75 157.25 525.26 154.02 529.61 151.56C533.96 149.1 539.33 147.86 545.73 147.86C552.13 147.86 557.66 149.09 562.01 151.56C566.36 154.02 569.87 157.2 572.54 161.07C575.22 164.95 577.47 169.12 579.3 173.57C581.13 178.03 583.47 183.98 586.3 191.42L646.53 340.18C651.25 351.5 653.61 359.73 653.61 364.87C653.61 370.01 651.38 375.12 646.93 379.57C642.47 384.02 637.1 386.25 630.81 386.25C627.14 386.25 623.99 385.59 621.37 384.28C618.75 382.97 616.55 381.19 614.77 378.93C612.99 376.68 611.08 373.22 609.03 368.55C606.99 363.89 605.23 359.77 603.76 356.21V356.24ZM511.29 292.24H580.17L545.42 197.1L511.3 292.24H511.29Z" fill="#802981" stroke="#802981" stroke-width="2" stroke-miterlimit="10"/>
<path d="M705.66 178.55L757.87 333.13L810.24 177.45C812.96 169.27 815.01 163.59 816.37 160.39C817.73 157.19 819.99 154.31 823.13 151.74C826.28 149.17 830.57 147.89 836.02 147.89C840 147.89 843.7 148.89 847.11 150.88C850.52 152.87 853.19 155.52 855.13 158.82C857.07 162.12 858.04 165.45 858.04 168.81C858.04 171.12 857.73 173.61 857.1 176.28C856.47 178.95 855.68 181.58 854.74 184.14C853.8 186.71 852.85 189.36 851.91 192.08L796.08 342.73C794.09 348.5 792.09 353.97 790.1 359.16C788.11 364.35 785.8 368.91 783.18 372.84C780.56 376.77 777.07 380 772.72 382.51C768.37 385.03 763.05 386.28 756.76 386.28C750.47 386.28 745.15 385.05 740.8 382.58C736.45 380.12 732.94 376.87 730.26 372.83C727.59 368.8 725.25 364.21 723.26 359.07C721.27 353.93 719.27 348.48 717.28 342.72L662.4 193.33C661.46 190.61 660.49 187.93 659.49 185.31C658.5 182.69 657.66 179.86 656.97 176.82C656.29 173.78 655.95 171.21 655.95 169.11C655.95 163.76 658.1 158.89 662.4 154.49C666.7 150.09 672.1 147.89 678.6 147.89C686.57 147.89 692.2 150.33 695.51 155.2C698.81 160.07 702.19 167.86 705.65 178.55H705.66Z" fill="#802981" stroke="#802981" stroke-width="2" stroke-miterlimit="10"/>
<path d="M1045.01 187.82H939.81V244.43H1036.68C1043.81 244.43 1049.13 246.03 1052.64 249.23C1056.15 252.43 1057.91 256.65 1057.91 261.89C1057.91 267.13 1056.18 271.4 1052.72 274.71C1049.26 278.02 1043.91 279.66 1036.68 279.66H939.81V345.24H1048.63C1055.97 345.24 1061.5 346.95 1065.22 350.35C1068.94 353.76 1070.8 358.29 1070.8 363.95C1070.8 369.61 1068.94 373.83 1065.22 377.24C1061.5 380.65 1055.96 382.35 1048.63 382.35H921.73C911.56 382.35 904.25 380.1 899.79 375.59C895.33 371.08 893.11 363.8 893.11 353.73V180.44C893.11 173.73 894.1 168.25 896.1 164.01C898.09 159.76 901.21 156.67 905.46 154.73C909.7 152.79 915.13 151.82 921.73 151.82H1045.02C1052.46 151.82 1057.99 153.47 1061.61 156.77C1065.23 160.07 1067.04 164.4 1067.04 169.74C1067.04 175.08 1065.23 179.57 1061.61 182.87C1058 186.17 1052.46 187.82 1045.02 187.82H1045.01Z" fill="#802981" stroke="#802981" stroke-width="2" stroke-miterlimit="10"/>
<path d="M1153.68 176.19V343.98H1248.35C1255.9 343.98 1261.69 345.82 1265.73 349.48C1269.77 353.15 1271.79 357.76 1271.79 363.32C1271.79 368.88 1269.8 373.57 1265.81 377.08C1261.82 380.59 1256.01 382.35 1248.35 382.35H1135.6C1125.43 382.35 1118.12 380.1 1113.66 375.59C1109.2 371.08 1106.98 363.8 1106.98 353.73V176.19C1106.98 166.75 1109.1 159.68 1113.35 154.96C1117.59 150.24 1123.18 147.88 1130.1 147.88C1137.02 147.88 1142.81 150.21 1147.16 154.88C1151.51 159.55 1153.69 166.65 1153.69 176.19H1153.68Z" fill="#802981" stroke="#802981" stroke-width="2" stroke-miterlimit="10"/>
<path d="M1482.81 309.54C1482.81 316.88 1481 324.82 1477.39 333.36C1473.77 341.91 1468.08 350.29 1460.33 358.52C1452.57 366.75 1442.66 373.43 1430.61 378.57C1418.55 383.71 1404.51 386.28 1388.47 386.28C1376.31 386.28 1365.25 385.12 1355.29 382.82C1345.33 380.52 1336.29 376.92 1328.16 372.05C1320.04 367.18 1312.57 360.75 1305.75 352.79C1299.67 345.56 1294.48 337.46 1290.18 328.49C1285.88 319.53 1282.66 309.96 1280.51 299.79C1278.36 289.62 1277.28 278.82 1277.28 267.4C1277.28 248.84 1279.98 232.23 1285.38 217.55C1290.78 202.87 1298.51 190.32 1308.58 179.89C1318.64 169.46 1330.44 161.52 1343.96 156.07C1357.48 150.62 1371.9 147.89 1387.21 147.89C1405.87 147.89 1422.49 151.61 1437.06 159.06C1451.63 166.51 1462.8 175.7 1470.56 186.66C1478.32 197.62 1482.2 207.97 1482.2 217.72C1482.2 223.07 1480.31 227.78 1476.54 231.87C1472.77 235.96 1468.21 238 1462.86 238C1456.88 238 1452.4 236.58 1449.42 233.75C1446.43 230.92 1443.1 226.04 1439.43 219.13C1433.35 207.7 1426.19 199.16 1417.97 193.5C1409.74 187.84 1399.59 185.01 1387.54 185.01C1368.35 185.01 1353.08 192.3 1341.7 206.87C1330.33 221.44 1324.64 242.15 1324.64 268.99C1324.64 286.92 1327.16 301.83 1332.19 313.73C1337.22 325.63 1344.35 334.51 1353.58 340.38C1362.8 346.25 1373.6 349.19 1385.97 349.19C1399.39 349.19 1410.74 345.86 1420.01 339.2C1429.29 332.54 1436.29 322.77 1441 309.87C1442.99 303.79 1445.45 298.84 1448.39 295.01C1451.32 291.18 1456.04 289.27 1462.54 289.27C1468.1 289.27 1472.86 291.21 1476.85 295.09C1480.83 298.97 1482.83 303.79 1482.83 309.56L1482.81 309.54Z" fill="#4056A5" stroke="#4056A5" stroke-width="2" stroke-miterlimit="10"/>
<path d="M1529.61 357.82V293.3C1529.61 283.86 1531.76 276.79 1536.06 272.07C1540.36 267.35 1545.91 264.99 1552.73 264.99C1559.55 264.99 1565.44 267.32 1569.79 271.99C1574.14 276.66 1576.32 283.76 1576.32 293.3V357.82C1576.32 367.36 1574.14 374.49 1569.79 379.21C1565.44 383.93 1559.75 386.29 1552.73 386.29C1545.71 386.29 1540.49 383.9 1536.14 379.13C1531.79 374.36 1529.62 367.26 1529.62 357.82H1529.61Z" fill="#4056A5" stroke="#4056A5" stroke-width="2" stroke-miterlimit="10"/>
<path d="M1773.1 356.24L1762.09 327.31H1668.37L1657.36 356.87C1653.06 368.4 1649.39 376.19 1646.35 380.22C1643.31 384.25 1638.33 386.27 1631.41 386.27C1625.54 386.27 1620.35 384.12 1615.84 379.82C1611.33 375.52 1609.08 370.65 1609.08 365.2C1609.08 362.05 1609.6 358.81 1610.65 355.45C1611.7 352.1 1613.43 347.43 1615.84 341.45L1674.81 191.74C1676.49 187.44 1678.51 182.28 1680.86 176.25C1683.22 170.22 1685.74 165.22 1688.41 161.23C1691.09 157.25 1694.6 154.02 1698.95 151.56C1703.3 149.1 1708.67 147.86 1715.07 147.86C1721.47 147.86 1727 149.09 1731.35 151.56C1735.7 154.02 1739.21 157.2 1741.88 161.07C1744.56 164.95 1746.81 169.12 1748.64 173.57C1750.47 178.03 1752.81 183.98 1755.64 191.42L1815.87 340.18C1820.59 351.5 1822.95 359.73 1822.95 364.87C1822.95 370.01 1820.72 375.12 1816.27 379.57C1811.81 384.02 1806.44 386.25 1800.15 386.25C1796.48 386.25 1793.33 385.59 1790.71 384.28C1788.09 382.97 1785.89 381.19 1784.11 378.93C1782.33 376.68 1780.42 373.22 1778.37 368.55C1776.33 363.89 1774.57 359.77 1773.1 356.21V356.24ZM1680.63 292.24H1749.51L1714.76 197.1L1680.64 292.24H1680.63Z" fill="#4056A5" stroke="#4056A5" stroke-width="2" stroke-miterlimit="10"/>
<path d="M1516.99 8.11C1460.78 34.38 1450.56 109.89 1497.84 150.28C1519.31 168.62 1531.46 191.39 1532.33 219.91C1532.73 232.86 1540.88 241.28 1552.62 241.37C1564.63 241.47 1572.52 233.59 1573.1 220.45C1574.39 191.68 1585.65 168.31 1608.28 149.85C1628.37 133.45 1637.76 111.25 1638.1 88.73C1638.11 22.81 1573.56 -18.33 1516.99 8.11ZM1552.74 130.05C1527.93 130.02 1507.55 109.12 1507.85 84.02C1508.14 59.73 1528.92 39.65 1553.27 40.12C1578.19 40.61 1597.81 60.91 1597.54 85.93C1597.28 109.76 1576.65 130.08 1552.75 130.05" fill="#4155A4"/>
<path d="M428.03 236.28C428.03 187.91 388.75 148.62 340.01 148.62H247.63C234.03 148.62 222.9 159.75 222.9 173.35V187.27C227.06 224.75 290.2 228.42 308.42 228.7H313.35L312.5 214.12C312.5 214.12 295.32 177.2 295.42 176.8C295.52 176.4 301.99 176.58 303.17 177.34C303.82 177.76 315.98 193.18 326.82 207.02L333.04 214.97C339.15 222.79 343.76 228.71 343.76 228.71H368.5C384.24 228.71 393.1 235.46 393.1 236.26C393.1 237.06 384.24 243.81 368.5 243.81H343.76C343.76 243.81 339.15 249.73 333.04 257.55L326.82 265.49C315.98 279.33 303.81 294.76 303.17 295.18C301.99 295.94 295.52 296.11 295.42 295.71C295.32 295.31 312.5 258.39 312.5 258.39L313.35 243.81H308.23C289.76 244.11 227.05 247.89 222.9 285.24V362.89C222.9 376.29 233.14 387.99 246.53 388.57C260.87 389.19 272.37 377.68 272.37 363.86V312.59H322.92L375.61 379.86C380.34 385.68 387.61 388.59 394.52 388.59C400.34 388.59 405.79 386.77 410.89 382.41C420.71 373.32 422.16 357.68 413.07 347.13L382.23 304.62C410.6 291.16 428.04 270.85 428.04 236.3" fill="#7F2880"/>
</svg>
