<svg width="44" height="45" viewBox="0 0 44 45" fill="none" xmlns="http://www.w3.org/2000/svg">
<path d="M3.84992 7.10287C3.74688 7.10413 3.64471 7.08381 3.54998 7.04321C3.45526 7.00262 3.37008 6.94265 3.29992 6.86716C2.98564 6.55287 2.98564 6.06573 3.29992 5.75144C7.02421 2.04286 11.9585 0 17.2228 0C19.1556 0 21.0885 0.282858 22.9271 0.848573C23.1242 0.910204 23.2892 1.04699 23.3862 1.22933C23.4833 1.41168 23.5046 1.6249 23.4456 1.82286C23.3199 2.24715 22.8799 2.48286 22.4714 2.34143C20.7678 1.83455 19.0002 1.57523 17.2228 1.57143C12.3828 1.57143 7.82564 3.45715 4.41564 6.88287C4.25849 7.04002 4.05421 7.10287 3.84992 7.10287Z" fill="#D3D3D3"/>
<path d="M0.785714 22.7543C0.345714 22.7543 0 22.4086 0 21.9686C0 12.4771 7.73143 4.74567 17.2229 4.74567C17.6629 4.74567 18.0086 5.09138 18.0086 5.53138C18.0086 5.97138 17.6629 6.3171 17.2229 6.3171C8.59571 6.3171 1.57143 13.3414 1.57143 21.9686C1.57143 22.4086 1.22571 22.7543 0.785714 22.7543ZM31.9157 22.7543C31.9157 23.1943 32.2614 23.54 32.7014 23.54C35.0429 23.54 37.29 22.8329 39.1914 21.4814C40.6767 20.4376 41.889 19.0517 42.7259 17.4407C43.5628 15.8298 43.9998 14.0411 44 12.2257C44 11.8014 43.6543 11.44 43.2143 11.44C42.7743 11.44 42.4286 11.7857 42.4286 12.2257C42.4286 15.4 40.8729 18.37 38.2957 20.2086C36.656 21.3559 34.7027 21.9704 32.7014 21.9686C32.2614 21.9686 31.9157 22.3143 31.9157 22.7543Z" fill="#D3D3D3"/>
<path d="M40.8571 6.96133V3.89703L39.7728 4.71418H31.3657C24.8128 4.71418 19.5014 10.2613 19.5014 16.8142V17.4899C19.5014 18.2285 20.0985 18.8256 20.8371 18.8256H28.9928C32.1394 18.8256 35.1571 17.5757 37.3821 15.3507C39.6071 13.1257 40.8571 10.1079 40.8571 6.96133ZM4.71423 26.5257V22.0156L6.28566 23.5714H18.6842C28.3485 23.5714 36.1899 31.4128 36.1899 41.0771V42.0671C36.1899 43.1514 35.3099 44.0314 34.2257 44.0314H22.2199C12.5557 44.0314 4.71423 36.19 4.71423 26.5257Z" fill="#00D26A"/>
<path d="M26.1957 14.6929C26.0078 14.7912 25.7888 14.8117 25.5859 14.75C25.3831 14.6883 25.2126 14.5492 25.1114 14.3629C25.0591 14.2715 25.0257 14.1705 25.0133 14.0659C25.0008 13.9613 25.0095 13.8553 25.0388 13.7542C25.0681 13.653 25.1175 13.5588 25.1839 13.4771C25.2504 13.3954 25.3326 13.3279 25.4257 13.2786L38.1228 6.34859C38.8142 5.95573 39.2542 5.23288 39.2542 4.43144V0.832864C39.2542 0.392863 39.6157 0.0314331 40.0557 0.0314331C40.4957 0.0314331 40.8571 0.392863 40.8571 0.832864V4.44716C40.8571 5.83002 40.1028 7.08717 38.8928 7.76288L26.1957 14.6929ZM26.3214 37.903C26.5099 37.9972 26.6985 38.0444 26.8871 38.0444C27.2957 38.0444 27.7042 37.8244 27.9085 37.4315C28.2228 36.8501 28.0028 36.143 27.4371 35.8287L8.73709 25.6144C8.23373 25.3368 7.81382 24.9295 7.52092 24.4349C7.22803 23.9403 7.07281 23.3763 7.07138 22.8015V17.4901C7.07138 16.8458 6.53709 16.3115 5.8928 16.3115C5.24852 16.3115 4.71423 16.8458 4.71423 17.4901V22.8015C4.71423 24.8444 5.82995 26.7144 7.62138 27.6886L26.3214 37.903Z" fill="#008463"/>
</svg>
