<svg class="w-full h-full" fill="none" xmlns="http://www.w3.org/2000/svg" viewBox="0 0 12 11">
                                       <path d="M10.35.25c.399 0 .75.352.75.773V10c0 .422-.351.75-.75.75H1.328A.736.736 0 0 1 .601 10V1.023C.6.602.929.25 1.327.25h9.024Zm-6.585 9V4.258H2.218V9.25h1.547ZM2.99 3.555a.89.89 0 0 0 .89-.89c0-.493-.398-.915-.89-.915a.915.915 0 0 0-.914.914c0 .492.399.89.914.89Zm6.61 5.695V6.508c0-1.336-.305-2.39-1.875-2.39-.75 0-1.266.421-1.477.82h-.023v-.68H4.749V9.25h1.547V6.79c0-.657.117-1.29.937-1.29.797 0 .797.75.797 1.313V9.25H9.6Z" fill="#0072B1"></path>
                                    </svg>