<svg width="171" height="242" viewBox="0 0 171 242" fill="none" xmlns="http://www.w3.org/2000/svg">
<path d="M49.1611 8.11278C-7.04889 34.3828 -17.2689 109.893 30.0111 150.283C51.4811 168.623 63.6311 191.393 64.5011 219.913C64.9011 232.863 73.0511 241.283 84.7911 241.373C96.8011 241.473 104.691 233.593 105.271 220.453C106.561 191.683 117.821 168.313 140.451 149.853C160.541 133.453 169.931 111.253 170.271 88.7328C170.281 22.8128 105.731 -18.3272 49.1611 8.11278ZM84.9111 130.053C60.1011 130.023 39.7211 109.123 40.0211 84.0228C40.3111 59.7328 61.0911 39.6528 85.4411 40.1228C110.361 40.6128 129.981 60.9128 129.711 85.9328C129.451 109.763 108.821 130.083 84.9211 130.053" fill="#4155A4"/>
</svg>
