<?xml version="1.0" encoding="UTF-8"?>
<svg id="Layer_1" data-name="Layer 1" xmlns="http://www.w3.org/2000/svg" viewBox="0 0 1823.95 489.87">
  <g>
    <g>
      <path d="m173.04,190.34h-50.95v167.48c0,9.65-2.15,16.8-6.45,21.47-4.3,4.66-9.86,7-16.67,7s-12.56-2.36-16.9-7.08c-4.35-4.72-6.53-11.85-6.53-21.39v-167.48H24.59c-7.97,0-13.89-1.75-17.77-5.27-3.88-3.51-5.82-8.15-5.82-13.92s2.02-10.69,6.05-14.15c4.03-3.46,9.88-5.19,17.53-5.19h148.45c8.07,0,14.07,1.78,18.01,5.35,3.93,3.57,5.9,8.23,5.9,14s-1.99,10.41-5.98,13.92c-3.99,3.51-9.96,5.27-17.93,5.27Z" style="fill: #802981; stroke: #802981; stroke-miterlimit: 10; stroke-width: 2px;"/>
      <path d="m603.76,356.24l-11.01-28.93h-93.72l-11.01,29.56c-4.3,11.53-7.97,19.32-11.01,23.35-3.04,4.03-8.02,6.05-14.94,6.05-5.87,0-11.06-2.15-15.57-6.45-4.51-4.3-6.76-9.17-6.76-14.62,0-3.15.52-6.39,1.57-9.75,1.05-3.35,2.78-8.02,5.19-14l58.97-149.71c1.68-4.3,3.7-9.46,6.05-15.49,2.36-6.03,4.88-11.03,7.55-15.02,2.68-3.98,6.19-7.21,10.54-9.67,4.35-2.46,9.72-3.7,16.12-3.7s11.93,1.23,16.28,3.7c4.35,2.46,7.86,5.64,10.53,9.51,2.68,3.88,4.93,8.05,6.76,12.5,1.83,4.46,4.17,10.41,7,17.85l60.23,148.76c4.72,11.32,7.08,19.55,7.08,24.69s-2.23,10.25-6.68,14.7c-4.46,4.45-9.83,6.68-16.12,6.68-3.67,0-6.82-.66-9.44-1.97-2.62-1.31-4.82-3.09-6.6-5.35-1.78-2.25-3.69-5.71-5.74-10.38-2.04-4.66-3.8-8.78-5.27-12.34Zm-92.47-64h68.88l-34.75-95.14-34.12,95.14Z" style="fill: #802981; stroke: #802981; stroke-miterlimit: 10; stroke-width: 2px;"/>
      <path d="m705.66,178.55l52.21,154.58,52.37-155.68c2.72-8.18,4.77-13.86,6.13-17.06,1.36-3.2,3.62-6.08,6.76-8.65,3.15-2.57,7.44-3.85,12.89-3.85,3.98,0,7.68,1,11.09,2.99,3.41,1.99,6.08,4.64,8.02,7.94,1.94,3.3,2.91,6.63,2.91,9.99,0,2.31-.31,4.8-.94,7.47s-1.42,5.3-2.36,7.86c-.94,2.57-1.89,5.22-2.83,7.94l-55.83,150.65c-1.99,5.77-3.99,11.24-5.98,16.43-1.99,5.19-4.3,9.75-6.92,13.68-2.62,3.93-6.11,7.16-10.46,9.67-4.35,2.52-9.67,3.77-15.96,3.77s-11.61-1.23-15.96-3.7c-4.35-2.46-7.86-5.71-10.54-9.75-2.67-4.03-5.01-8.62-7-13.76-1.99-5.14-3.99-10.59-5.98-16.35l-54.88-149.39c-.94-2.72-1.91-5.4-2.91-8.02-.99-2.62-1.83-5.45-2.52-8.49-.68-3.04-1.02-5.61-1.02-7.71,0-5.35,2.15-10.22,6.45-14.62,4.3-4.4,9.7-6.6,16.2-6.6,7.97,0,13.6,2.44,16.91,7.31,3.3,4.87,6.68,12.66,10.14,23.35Z" style="fill: #802981; stroke: #802981; stroke-miterlimit: 10; stroke-width: 2px;"/>
      <path d="m1045.01,187.82h-105.2v56.61h96.87c7.13,0,12.45,1.6,15.96,4.8,3.51,3.2,5.27,7.42,5.27,12.66s-1.73,9.51-5.19,12.82-8.81,4.95-16.04,4.95h-96.87v65.58h108.82c7.34,0,12.87,1.71,16.59,5.11,3.72,3.41,5.58,7.94,5.58,13.6s-1.86,9.88-5.58,13.29c-3.72,3.41-9.26,5.11-16.59,5.11h-126.9c-10.17,0-17.48-2.25-21.94-6.76-4.46-4.51-6.68-11.79-6.68-21.86v-173.29c0-6.71.99-12.19,2.99-16.43,1.99-4.25,5.11-7.34,9.36-9.28,4.24-1.94,9.67-2.91,16.27-2.91h123.29c7.44,0,12.97,1.65,16.59,4.95,3.62,3.3,5.43,7.63,5.43,12.97s-1.81,9.83-5.43,13.13c-3.61,3.3-9.15,4.95-16.59,4.95Z" style="fill: #802981; stroke: #802981; stroke-miterlimit: 10; stroke-width: 2px;"/>
      <path d="m1153.68,176.19v167.79h94.67c7.55,0,13.34,1.84,17.38,5.5,4.04,3.67,6.06,8.28,6.06,13.84s-1.99,10.25-5.98,13.76c-3.99,3.51-9.8,5.27-17.46,5.27h-112.75c-10.17,0-17.48-2.25-21.94-6.76-4.46-4.51-6.68-11.79-6.68-21.86v-177.54c0-9.44,2.12-16.51,6.37-21.23,4.24-4.72,9.83-7.08,16.75-7.08s12.71,2.33,17.06,7c4.35,4.67,6.53,11.77,6.53,21.31Z" style="fill: #802981; stroke: #802981; stroke-miterlimit: 10; stroke-width: 2px;"/>
      <path d="m1482.81,309.54c0,7.34-1.81,15.28-5.42,23.82-3.62,8.55-9.31,16.93-17.06,25.16-7.76,8.23-17.67,14.91-29.72,20.05-12.06,5.14-26.1,7.71-42.14,7.71-12.16,0-23.22-1.16-33.18-3.46-9.96-2.3-19-5.9-27.13-10.77-8.12-4.87-15.59-11.3-22.41-19.26-6.08-7.23-11.27-15.33-15.57-24.3-4.3-8.96-7.52-18.53-9.67-28.7-2.15-10.17-3.23-20.97-3.23-32.39,0-18.56,2.7-35.17,8.1-49.85,5.4-14.68,13.13-27.23,23.2-37.66,10.06-10.43,21.86-18.37,35.38-23.82,13.52-5.45,27.94-8.18,43.25-8.18,18.66,0,35.28,3.72,49.85,11.17,14.57,7.45,25.74,16.64,33.5,27.6,7.76,10.96,11.64,21.31,11.64,31.06,0,5.35-1.89,10.06-5.66,14.15-3.77,4.09-8.33,6.13-13.68,6.13-5.98,0-10.46-1.42-13.44-4.25-2.99-2.83-6.32-7.71-9.99-14.62-6.08-11.43-13.24-19.97-21.46-25.63-8.23-5.66-18.38-8.49-30.43-8.49-19.19,0-34.46,7.29-45.84,21.86-11.37,14.57-17.06,35.28-17.06,62.12,0,17.93,2.52,32.84,7.55,44.74,5.03,11.9,12.16,20.78,21.39,26.65,9.22,5.87,20.02,8.81,32.39,8.81,13.42,0,24.77-3.33,34.04-9.99,9.28-6.66,16.28-16.43,20.99-29.33,1.99-6.08,4.45-11.03,7.39-14.86,2.93-3.83,7.65-5.74,14.15-5.74,5.56,0,10.32,1.94,14.31,5.82,3.98,3.88,5.98,8.7,5.98,14.47Z" style="fill: #4056a5; stroke: #4056a5; stroke-miterlimit: 10; stroke-width: 2px;"/>
      <path d="m1529.61,357.82v-64.52c0-9.44,2.15-16.51,6.45-21.23,4.3-4.72,9.85-7.08,16.67-7.08s12.71,2.33,17.06,7c4.35,4.67,6.53,11.77,6.53,21.31v64.52c0,9.54-2.18,16.67-6.53,21.39-4.35,4.72-10.04,7.08-17.06,7.08s-12.24-2.39-16.59-7.16c-4.35-4.77-6.52-11.87-6.52-21.31Z" style="fill: #4056a5; stroke: #4056a5; stroke-miterlimit: 10; stroke-width: 2px;"/>
      <path d="m1773.1,356.24l-11.01-28.93h-93.72l-11.01,29.56c-4.3,11.53-7.97,19.32-11.01,23.35-3.04,4.03-8.02,6.05-14.94,6.05-5.87,0-11.06-2.15-15.57-6.45-4.51-4.3-6.76-9.17-6.76-14.62,0-3.15.52-6.39,1.57-9.75,1.05-3.35,2.78-8.02,5.19-14l58.97-149.71c1.68-4.3,3.7-9.46,6.05-15.49,2.36-6.03,4.88-11.03,7.55-15.02,2.68-3.98,6.19-7.21,10.54-9.67,4.35-2.46,9.72-3.7,16.12-3.7s11.93,1.23,16.28,3.7c4.35,2.46,7.86,5.64,10.53,9.51,2.68,3.88,4.93,8.05,6.76,12.5,1.83,4.46,4.17,10.41,7,17.85l60.23,148.76c4.72,11.32,7.08,19.55,7.08,24.69s-2.23,10.25-6.68,14.7c-4.46,4.45-9.83,6.68-16.12,6.68-3.67,0-6.82-.66-9.44-1.97-2.62-1.31-4.82-3.09-6.6-5.35-1.78-2.25-3.69-5.71-5.74-10.38-2.04-4.66-3.8-8.78-5.27-12.34Zm-92.47-64h68.88l-34.75-95.14-34.12,95.14Z" style="fill: #4056a5; stroke: #4056a5; stroke-miterlimit: 10; stroke-width: 2px;"/>
    </g>
    <path d="m1516.99,8.11c-56.21,26.27-66.43,101.78-19.15,142.17,21.47,18.34,33.62,41.11,34.49,69.63.4,12.95,8.55,21.37,20.29,21.46,12.01.1,19.9-7.78,20.48-20.92,1.29-28.77,12.55-52.14,35.18-70.6,20.09-16.4,29.48-38.6,29.82-61.12.01-65.92-64.54-107.06-121.11-80.62m35.75,121.94c-24.81-.03-45.19-20.93-44.89-46.03.29-24.29,21.07-44.37,45.42-43.9,24.92.49,44.54,20.79,44.27,45.81-.26,23.83-20.89,44.15-44.79,44.12" style="fill: #4155a4;"/>
    <path d="m428.03,236.28c0-48.37-39.28-87.66-88.02-87.66h-92.38c-13.6,0-24.73,11.13-24.73,24.73v13.92c4.16,37.48,67.3,41.15,85.52,41.43h4.93l-.85-14.58s-17.18-36.92-17.08-37.32c.1-.4,6.57-.22,7.75.54.65.42,12.81,15.84,23.65,29.68l6.22,7.95c6.11,7.82,10.72,13.74,10.72,13.74h24.74c15.74,0,24.6,6.75,24.6,7.55s-8.86,7.55-24.6,7.55h-24.74s-4.61,5.92-10.72,13.74l-6.22,7.94c-10.84,13.84-23.01,29.27-23.65,29.69-1.18.76-7.65.93-7.75.53-.1-.4,17.08-37.32,17.08-37.32l.85-14.58h-5.12c-18.47.3-81.18,4.08-85.33,41.43v77.65c0,13.4,10.24,25.1,23.63,25.68,14.34.62,25.84-10.89,25.84-24.71v-51.27h50.55l52.69,67.27c4.73,5.82,12,8.73,18.91,8.73,5.82,0,11.27-1.82,16.37-6.18,9.82-9.09,11.27-24.73,2.18-35.28l-30.84-42.51c28.37-13.46,45.81-33.77,45.81-68.32" style="fill: #7f2880;"/>
  </g>
  <g>
    <path d="m275.63,466.31c0,1.37-.34,2.85-1.01,4.44s-1.73,3.15-3.18,4.69c-1.45,1.53-3.29,2.78-5.54,3.74-2.25.96-4.86,1.44-7.85,1.44-2.27,0-4.33-.21-6.18-.64-1.86-.43-3.54-1.1-5.05-2.01-1.51-.91-2.91-2.1-4.17-3.59-1.13-1.35-2.1-2.86-2.9-4.53-.8-1.67-1.4-3.45-1.8-5.35-.4-1.89-.6-3.91-.6-6.04,0-3.46.5-6.55,1.51-9.29,1.01-2.73,2.45-5.07,4.32-7.02s4.07-3.42,6.59-4.44c2.52-1.02,5.2-1.52,8.06-1.52,3.48,0,6.57.69,9.29,2.08,2.71,1.39,4.79,3.1,6.24,5.14,1.45,2.04,2.17,3.97,2.17,5.79,0,1-.35,1.88-1.05,2.64s-1.55,1.14-2.55,1.14c-1.11,0-1.95-.26-2.5-.79s-1.18-1.44-1.86-2.72c-1.13-2.13-2.47-3.72-4-4.78-1.53-1.05-3.42-1.58-5.67-1.58-3.57,0-6.42,1.36-8.54,4.07-2.12,2.71-3.18,6.57-3.18,11.57,0,3.34.47,6.12,1.41,8.33s2.27,3.87,3.98,4.97c1.72,1.09,3.73,1.64,6.04,1.64,2.5,0,4.61-.62,6.34-1.86s3.03-3.06,3.91-5.46c.37-1.13.83-2.06,1.38-2.77.55-.71,1.43-1.07,2.64-1.07,1.04,0,1.92.36,2.67,1.08.74.72,1.11,1.62,1.11,2.7Z" style="stroke: #000; stroke-miterlimit: 10;"/>
    <path d="m295.14,461.51h-3.05v13.8c0,1.82-.4,3.15-1.2,4.01-.8.86-1.85,1.29-3.13,1.29-1.39,0-2.46-.45-3.22-1.35s-1.14-2.22-1.14-3.96v-33.05c0-1.88.42-3.23,1.26-4.07s2.2-1.26,4.07-1.26h14.15c1.95,0,3.62.08,5.01.25,1.39.17,2.64.5,3.75,1.01,1.35.57,2.54,1.38,3.57,2.43,1.04,1.05,1.82,2.28,2.36,3.68.54,1.4.81,2.88.81,4.44,0,3.2-.9,5.76-2.71,7.68-1.81,1.91-4.55,3.27-8.22,4.07,1.54.82,3.02,2.03,4.42,3.63s2.66,3.31,3.76,5.11c1.1,1.81,1.96,3.44,2.58,4.89s.92,2.46.92,3-.18,1.13-.54,1.68c-.36.56-.85,1-1.48,1.32-.63.32-1.35.48-2.17.48-.98,0-1.8-.23-2.46-.69-.66-.46-1.24-1.04-1.71-1.74-.48-.7-1.13-1.74-1.95-3.11l-3.49-5.8c-1.25-2.13-2.37-3.75-3.35-4.86-.99-1.11-1.99-1.88-3-2.29-1.02-.41-2.3-.62-3.84-.62Zm4.98-18.05h-8.03v11.81h7.79c2.09,0,3.85-.18,5.27-.54,1.43-.36,2.51-.98,3.27-1.85.75-.87,1.13-2.07,1.13-3.59,0-1.19-.3-2.24-.91-3.15-.61-.91-1.45-1.59-2.52-2.04-1.02-.43-3.02-.64-6.01-.64Z" style="stroke: #000; stroke-miterlimit: 10;"/>
    <path d="m354.09,475.01l-2.05-5.39h-17.46l-2.05,5.51c-.8,2.15-1.48,3.6-2.05,4.35-.57.75-1.49,1.13-2.78,1.13-1.09,0-2.06-.4-2.9-1.2-.84-.8-1.26-1.71-1.26-2.72,0-.59.1-1.19.29-1.82.19-.62.52-1.49.97-2.61l10.99-27.89c.31-.8.69-1.76,1.13-2.89s.91-2.06,1.41-2.8,1.15-1.34,1.96-1.8c.81-.46,1.81-.69,3-.69s2.22.23,3.03.69c.81.46,1.46,1.05,1.96,1.77s.92,1.5,1.26,2.33c.34.83.78,1.94,1.3,3.33l11.22,27.71c.88,2.11,1.32,3.64,1.32,4.6s-.42,1.91-1.25,2.74c-.83.83-1.83,1.25-3,1.25-.68,0-1.27-.12-1.76-.37-.49-.24-.9-.58-1.23-1-.33-.42-.69-1.06-1.07-1.93s-.71-1.64-.98-2.3Zm-17.23-11.92h12.83l-6.47-17.72-6.36,17.72Z" style="stroke: #000; stroke-miterlimit: 10;"/>
    <path d="m395.43,443.64h-17.14v10.99h14.33c1.33,0,2.32.3,2.97.89.65.6.98,1.39.98,2.39s-.33,1.79-1,2.37c-.66.59-1.65.88-2.96.88h-14.33v14.15c0,1.8-.41,3.13-1.22,4-.81.87-1.85,1.3-3.12,1.3s-2.34-.44-3.15-1.32c-.81-.88-1.22-2.21-1.22-3.98v-33.05c0-1.25.19-2.27.56-3.06.37-.79.95-1.37,1.74-1.73s1.8-.54,3.03-.54h20.51c1.39,0,2.42.31,3.09.92s1.01,1.42,1.01,2.42-.34,1.83-1.01,2.45-1.7.92-3.09.92Z" style="stroke: #000; stroke-miterlimit: 10;"/>
    <path d="m433.89,444.1h-9.49v31.2c0,1.8-.4,3.13-1.2,4-.8.87-1.84,1.3-3.11,1.3s-2.34-.44-3.15-1.32c-.81-.88-1.22-2.21-1.22-3.98v-31.2h-9.49c-1.48,0-2.59-.33-3.31-.98-.72-.65-1.08-1.52-1.08-2.59s.38-1.99,1.13-2.64c.75-.64,1.84-.97,3.27-.97h27.66c1.5,0,2.62.33,3.35,1,.73.66,1.1,1.53,1.1,2.61s-.37,1.94-1.11,2.59c-.74.65-1.86.98-3.34.98Z" style="stroke: #000; stroke-miterlimit: 10;"/>
    <path d="m443.86,475.3v-33.84c0-1.76.4-3.08,1.2-3.96.8-.88,1.84-1.32,3.11-1.32s2.37.44,3.18,1.3c.81.87,1.22,2.19,1.22,3.97v33.84c0,1.78-.41,3.11-1.22,3.98-.81.88-1.87,1.32-3.18,1.32s-2.28-.44-3.09-1.33c-.81-.89-1.22-2.21-1.22-3.97Z" style="stroke: #000; stroke-miterlimit: 10;"/>
    <path d="m473.62,441.41l16.73,25.31v-25.55c0-1.66.36-2.91,1.07-3.74.71-.83,1.67-1.25,2.89-1.25s2.24.42,2.96,1.25c.72.83,1.08,2.08,1.08,3.74v33.78c0,3.77-1.56,5.65-4.69,5.65-.78,0-1.48-.11-2.11-.34-.63-.22-1.21-.58-1.76-1.07-.55-.49-1.05-1.06-1.52-1.71s-.94-1.32-1.41-2.01l-16.32-25.02v25.17c0,1.64-.38,2.88-1.14,3.72s-1.74,1.26-2.93,1.26-2.22-.42-2.96-1.27c-.74-.85-1.11-2.08-1.11-3.71v-33.13c0-1.41.16-2.51.47-3.31.37-.88.99-1.6,1.85-2.15.86-.56,1.79-.83,2.78-.83.78,0,1.45.13,2.01.38.56.25,1.04.6,1.46,1.03.42.43.85.99,1.29,1.67s.89,1.4,1.36,2.14Z" style="stroke: #000; stroke-miterlimit: 10;"/>
    <path d="m547.1,462.41v8.23c0,1.09-.11,1.97-.32,2.62-.22.65-.61,1.25-1.19,1.77-.58.53-1.31,1.04-2.21,1.52-2.6,1.41-5.1,2.43-7.5,3.08s-5.02.97-7.85.97c-3.3,0-6.31-.51-9.02-1.52-2.71-1.02-5.03-2.49-6.94-4.42-1.91-1.93-3.38-4.28-4.41-7.03s-1.54-5.83-1.54-9.23.5-6.4,1.49-9.17,2.46-5.13,4.39-7.06,4.29-3.41,7.06-4.44c2.77-1.03,5.92-1.54,9.43-1.54,2.89,0,5.45.39,7.68,1.16s4.03,1.74,5.42,2.92c1.39,1.17,2.43,2.41,3.13,3.72s1.05,2.47,1.05,3.49c0,1.09-.41,2.03-1.22,2.8-.81.77-1.78,1.16-2.92,1.16-.63,0-1.23-.15-1.8-.44-.58-.29-1.06-.7-1.45-1.23-1.07-1.68-1.98-2.95-2.72-3.81-.74-.86-1.74-1.58-3-2.17s-2.87-.88-4.82-.88-3.81.35-5.39,1.04-2.93,1.7-4.06,3.02c-1.12,1.32-1.98,2.93-2.58,4.85-.6,1.91-.89,4.03-.89,6.36,0,5.04,1.16,8.92,3.47,11.63s5.54,4.07,9.68,4.07c2.01,0,3.9-.26,5.67-.79,1.77-.53,3.56-1.28,5.38-2.26v-6.97h-6.74c-1.62,0-2.85-.24-3.68-.73-.83-.49-1.25-1.32-1.25-2.49,0-.96.35-1.75,1.04-2.37.69-.62,1.64-.94,2.83-.94h9.87c1.21,0,2.24.11,3.08.32.84.21,1.52.69,2.04,1.44.52.74.78,1.86.78,3.34Z" style="stroke: #000; stroke-miterlimit: 10;"/>
    <path d="m595.35,441.47v22.5c0,1.95-.08,3.61-.25,4.98-.17,1.37-.54,2.75-1.13,4.16-.98,2.36-2.59,4.2-4.83,5.52-2.25,1.32-4.98,1.98-8.2,1.98-2.91,0-5.34-.46-7.28-1.38-1.94-.92-3.51-2.4-4.7-4.45-.63-1.09-1.13-2.35-1.52-3.78-.39-1.43-.59-2.78-.59-4.07,0-1.37.38-2.41,1.14-3.13s1.74-1.08,2.93-1.08,2.02.33,2.61,1,1.04,1.7,1.35,3.11c.33,1.5.66,2.71,1,3.6.33.9.89,1.67,1.67,2.31.78.64,1.89.97,3.34.97,3.85,0,5.77-2.82,5.77-8.47v-23.76c0-1.76.39-3.08,1.16-3.96.77-.88,1.82-1.32,3.15-1.32s2.42.44,3.21,1.32c.79.88,1.19,2.2,1.19,3.96Z" style="stroke: #000; stroke-miterlimit: 10;"/>
    <path d="m623.68,436.19c4.45,0,8.28.9,11.47,2.71,3.19,1.81,5.61,4.38,7.25,7.71s2.46,7.24,2.46,11.73c0,3.32-.45,6.34-1.35,9.05-.9,2.71-2.25,5.07-4.04,7.06-1.8,1.99-4,3.52-6.62,4.57-2.62,1.05-5.62,1.58-8.99,1.58s-6.37-.54-9.02-1.63c-2.66-1.08-4.87-2.61-6.65-4.58-1.78-1.97-3.12-4.35-4.03-7.12s-1.36-5.77-1.36-8.99.47-6.33,1.42-9.08c.95-2.75,2.32-5.1,4.12-7.03,1.8-1.93,3.98-3.41,6.56-4.44s5.51-1.54,8.79-1.54Zm12.36,22.09c0-3.14-.51-5.87-1.52-8.17-1.02-2.3-2.47-4.05-4.35-5.23-1.89-1.18-4.05-1.77-6.49-1.77-1.74,0-3.34.33-4.82.98-1.48.65-2.74,1.61-3.81,2.86-1.06,1.25-1.9,2.85-2.52,4.79s-.92,4.13-.92,6.55.31,4.65.92,6.62,1.48,3.61,2.61,4.91c1.12,1.3,2.41,2.27,3.87,2.92,1.45.64,3.05.97,4.79.97,2.23,0,4.27-.56,6.14-1.67,1.86-1.11,3.35-2.83,4.45-5.16,1.1-2.32,1.66-5.19,1.66-8.58Z" style="stroke: #000; stroke-miterlimit: 10;"/>
    <path d="m652.36,462.12v-20.65c0-1.76.4-3.08,1.19-3.96s1.83-1.32,3.12-1.32,2.42.44,3.21,1.32,1.19,2.2,1.19,3.96v21.12c0,2.4.27,4.41.81,6.02.54,1.61,1.49,2.86,2.86,3.75,1.37.89,3.28,1.33,5.74,1.33,3.4,0,5.8-.9,7.21-2.71s2.11-4.55,2.11-8.22v-21.3c0-1.78.39-3.1,1.17-3.97.78-.87,1.83-1.3,3.13-1.3s2.37.44,3.18,1.3c.81.87,1.22,2.19,1.22,3.97v20.65c0,3.36-.33,6.16-.98,8.41-.65,2.25-1.89,4.22-3.71,5.92-1.56,1.45-3.38,2.5-5.45,3.16-2.07.66-4.49,1-7.27,1-3.3,0-6.14-.36-8.53-1.07-2.38-.71-4.33-1.82-5.83-3.31-1.5-1.49-2.61-3.41-3.31-5.74s-1.05-5.12-1.05-8.36Z" style="stroke: #000; stroke-miterlimit: 10;"/>
    <path d="m709.58,461.51h-3.05v13.8c0,1.82-.4,3.15-1.2,4.01-.8.86-1.85,1.29-3.13,1.29-1.39,0-2.46-.45-3.22-1.35s-1.14-2.22-1.14-3.96v-33.05c0-1.88.42-3.23,1.26-4.07s2.2-1.26,4.07-1.26h14.15c1.95,0,3.62.08,5.01.25,1.39.17,2.64.5,3.75,1.01,1.35.57,2.54,1.38,3.57,2.43,1.04,1.05,1.82,2.28,2.36,3.68.54,1.4.81,2.88.81,4.44,0,3.2-.9,5.76-2.71,7.68-1.81,1.91-4.55,3.27-8.22,4.07,1.54.82,3.02,2.03,4.42,3.63s2.66,3.31,3.76,5.11c1.1,1.81,1.96,3.44,2.58,4.89s.92,2.46.92,3-.18,1.13-.54,1.68c-.36.56-.85,1-1.48,1.32-.63.32-1.35.48-2.17.48-.98,0-1.8-.23-2.46-.69-.66-.46-1.24-1.04-1.71-1.74-.48-.7-1.13-1.74-1.95-3.11l-3.49-5.8c-1.25-2.13-2.37-3.75-3.35-4.86-.99-1.11-1.99-1.88-3-2.29-1.02-.41-2.3-.62-3.84-.62Zm4.98-18.05h-8.03v11.81h7.79c2.09,0,3.85-.18,5.27-.54,1.43-.36,2.51-.98,3.27-1.85.75-.87,1.13-2.07,1.13-3.59,0-1.19-.3-2.24-.91-3.15-.61-.91-1.45-1.59-2.52-2.04-1.02-.43-3.02-.64-6.01-.64Z" style="stroke: #000; stroke-miterlimit: 10;"/>
    <path d="m752.38,441.41l16.73,25.31v-25.55c0-1.66.36-2.91,1.07-3.74.71-.83,1.67-1.25,2.89-1.25s2.24.42,2.96,1.25c.72.83,1.08,2.08,1.08,3.74v33.78c0,3.77-1.56,5.65-4.69,5.65-.78,0-1.48-.11-2.11-.34-.63-.22-1.21-.58-1.76-1.07-.55-.49-1.05-1.06-1.52-1.71s-.94-1.32-1.41-2.01l-16.32-25.02v25.17c0,1.64-.38,2.88-1.14,3.72s-1.74,1.26-2.93,1.26-2.22-.42-2.96-1.27c-.74-.85-1.11-2.08-1.11-3.71v-33.13c0-1.41.16-2.51.47-3.31.37-.88.99-1.6,1.85-2.15.86-.56,1.79-.83,2.78-.83.78,0,1.45.13,2.01.38.56.25,1.04.6,1.46,1.03.42.43.85.99,1.29,1.67s.89,1.4,1.36,2.14Z" style="stroke: #000; stroke-miterlimit: 10;"/>
    <path d="m814.93,443.64h-19.6v10.55h18.05c1.33,0,2.32.3,2.97.89.65.6.98,1.38.98,2.36s-.32,1.77-.97,2.39-1.64.92-2.99.92h-18.05v12.22h20.27c1.37,0,2.4.32,3.09.95.69.63,1.04,1.48,1.04,2.53s-.35,1.84-1.04,2.48c-.69.63-1.72.95-3.09.95h-23.64c-1.89,0-3.26-.42-4.09-1.26-.83-.84-1.25-2.2-1.25-4.07v-32.29c0-1.25.19-2.27.56-3.06.37-.79.95-1.37,1.74-1.73s1.8-.54,3.03-.54h22.97c1.39,0,2.42.31,3.09.92s1.01,1.42,1.01,2.42-.34,1.83-1.01,2.45-1.7.92-3.09.92Z" style="stroke: #000; stroke-miterlimit: 10;"/>
    <path d="m836.23,475.3v-13.62l-10.49-16.26c-.92-1.46-1.57-2.61-1.95-3.43s-.57-1.53-.57-2.14c0-1,.39-1.86,1.16-2.58.77-.72,1.72-1.08,2.86-1.08,1.19,0,2.09.34,2.71,1.01s1.54,2.02,2.77,4.03l8.03,13.04,8.12-13.04c.49-.8.9-1.47,1.23-2.02.33-.55.7-1.06,1.1-1.54.4-.48.84-.84,1.33-1.1.49-.25,1.08-.38,1.79-.38,1.09,0,2.01.36,2.74,1.07s1.1,1.54,1.1,2.48c0,.76-.19,1.52-.56,2.29-.37.76-1.01,1.82-1.9,3.16l-10.75,16.49v13.62c0,1.78-.41,3.11-1.23,3.98s-1.87,1.32-3.13,1.32-2.33-.43-3.13-1.3c-.8-.87-1.2-2.2-1.2-4Z" style="stroke: #000; stroke-miterlimit: 10;"/>
    <path d="m895.29,466.98c0,2.6-.67,4.93-2.01,7-1.34,2.07-3.3,3.69-5.87,4.86s-5.64,1.76-9.17,1.76c-4.24,0-7.73-.8-10.49-2.4-1.95-1.15-3.54-2.69-4.76-4.61-1.22-1.92-1.83-3.79-1.83-5.61,0-1.05.37-1.96,1.1-2.71s1.67-1.13,2.8-1.13c.92,0,1.69.29,2.33.88.63.59,1.18,1.46,1.63,2.61.55,1.37,1.14,2.51,1.77,3.43.63.92,1.53,1.67,2.68,2.27,1.15.6,2.67.89,4.54.89,2.58,0,4.67-.6,6.28-1.8s2.42-2.7,2.42-4.5c0-1.43-.44-2.58-1.3-3.47-.87-.89-1.99-1.57-3.37-2.04s-3.22-.97-5.52-1.49c-3.09-.72-5.67-1.57-7.75-2.53s-3.73-2.29-4.95-3.96c-1.22-1.67-1.83-3.75-1.83-6.23s.64-4.46,1.93-6.3,3.15-3.25,5.6-4.23c2.44-.99,5.31-1.48,8.61-1.48,2.64,0,4.92.33,6.84.98,1.92.65,3.52,1.52,4.79,2.61,1.27,1.08,2.2,2.22,2.78,3.41s.88,2.35.88,3.49c0,1.04-.37,1.97-1.1,2.8s-1.65,1.25-2.74,1.25c-1,0-1.75-.25-2.27-.75-.52-.5-1.08-1.31-1.68-2.45-.78-1.62-1.72-2.89-2.81-3.79-1.09-.91-2.85-1.36-5.27-1.36-2.25,0-4.06.49-5.43,1.48s-2.07,2.17-2.07,3.56c0,.86.23,1.6.7,2.23s1.11,1.16,1.93,1.61,1.65.8,2.49,1.05c.84.25,2.23.62,4.16,1.11,2.42.57,4.61,1.19,6.58,1.88s3.63,1.51,5.01,2.49c1.38.98,2.45,2.21,3.22,3.71.77,1.49,1.16,3.33,1.16,5.49Z" style="stroke: #000; stroke-miterlimit: 10;"/>
    <path d="m906.04,480.67c-1.29,0-2.4-.4-3.34-1.19s-1.41-1.9-1.41-3.33c0-1.23.46-2.27,1.38-3.11.92-.84,2-1.26,3.25-1.26.94,0,1.79.25,2.55.76s1.36,1.25,1.79,2.24c.43.99.64,2.2.64,3.65,0,1.93-.41,3.75-1.23,5.43s-1.82,3.03-3,4.01c-1.18.99-2.25,1.48-3.21,1.48-.61,0-1.1-.2-1.48-.6s-.57-.86-.57-1.39c0-.8.4-1.45,1.2-1.93,2.29-1.27,3.43-2.86,3.43-4.78Z" style="stroke: #000; stroke-miterlimit: 10;"/>
    <path d="m971.55,466.31c0,1.37-.34,2.85-1.01,4.44s-1.73,3.15-3.18,4.69c-1.45,1.53-3.29,2.78-5.54,3.74-2.25.96-4.86,1.44-7.85,1.44-2.27,0-4.33-.21-6.18-.64-1.86-.43-3.54-1.1-5.05-2.01-1.51-.91-2.91-2.1-4.17-3.59-1.13-1.35-2.1-2.86-2.9-4.53-.8-1.67-1.4-3.45-1.8-5.35-.4-1.89-.6-3.91-.6-6.04,0-3.46.5-6.55,1.51-9.29,1.01-2.73,2.45-5.07,4.32-7.02s4.07-3.42,6.59-4.44c2.52-1.02,5.2-1.52,8.06-1.52,3.48,0,6.57.69,9.29,2.08,2.71,1.39,4.79,3.1,6.24,5.14,1.45,2.04,2.17,3.97,2.17,5.79,0,1-.35,1.88-1.05,2.64s-1.55,1.14-2.55,1.14c-1.11,0-1.95-.26-2.5-.79s-1.18-1.44-1.86-2.72c-1.13-2.13-2.47-3.72-4-4.78-1.53-1.05-3.42-1.58-5.67-1.58-3.57,0-6.42,1.36-8.54,4.07-2.12,2.71-3.18,6.57-3.18,11.57,0,3.34.47,6.12,1.41,8.33s2.27,3.87,3.98,4.97c1.72,1.09,3.73,1.64,6.04,1.64,2.5,0,4.61-.62,6.34-1.86s3.03-3.06,3.91-5.46c.37-1.13.83-2.06,1.38-2.77.55-.71,1.42-1.07,2.64-1.07,1.04,0,1.92.36,2.67,1.08.74.72,1.11,1.62,1.11,2.7Z" style="stroke: #000; stroke-miterlimit: 10;"/>
    <path d="m991.06,461.51h-3.05v13.8c0,1.82-.4,3.15-1.2,4.01-.8.86-1.85,1.29-3.13,1.29-1.39,0-2.46-.45-3.22-1.35s-1.14-2.22-1.14-3.96v-33.05c0-1.88.42-3.23,1.26-4.07.84-.84,2.2-1.26,4.07-1.26h14.15c1.95,0,3.62.08,5.01.25,1.39.17,2.64.5,3.75,1.01,1.35.57,2.54,1.38,3.57,2.43,1.04,1.05,1.82,2.28,2.36,3.68.54,1.4.81,2.88.81,4.44,0,3.2-.9,5.76-2.71,7.68-1.81,1.91-4.55,3.27-8.22,4.07,1.54.82,3.02,2.03,4.42,3.63s2.66,3.31,3.76,5.11c1.1,1.81,1.96,3.44,2.58,4.89s.92,2.46.92,3-.18,1.13-.54,1.68c-.36.56-.85,1-1.48,1.32-.63.32-1.35.48-2.17.48-.98,0-1.8-.23-2.46-.69-.66-.46-1.24-1.04-1.71-1.74-.48-.7-1.13-1.74-1.95-3.11l-3.49-5.8c-1.25-2.13-2.37-3.75-3.35-4.86-.99-1.11-1.99-1.88-3-2.29-1.02-.41-2.3-.62-3.84-.62Zm4.98-18.05h-8.03v11.81h7.79c2.09,0,3.85-.18,5.27-.54,1.42-.36,2.51-.98,3.27-1.85.75-.87,1.13-2.07,1.13-3.59,0-1.19-.3-2.24-.91-3.15-.61-.91-1.45-1.59-2.52-2.04-1.02-.43-3.02-.64-6.01-.64Z" style="stroke: #000; stroke-miterlimit: 10;"/>
    <path d="m1050.83,443.64h-19.6v10.55h18.05c1.33,0,2.32.3,2.97.89.65.6.98,1.38.98,2.36s-.32,1.77-.97,2.39-1.64.92-2.99.92h-18.05v12.22h20.27c1.37,0,2.4.32,3.09.95.69.63,1.04,1.48,1.04,2.53s-.35,1.84-1.04,2.48c-.69.63-1.72.95-3.09.95h-23.64c-1.89,0-3.26-.42-4.09-1.26-.83-.84-1.25-2.2-1.25-4.07v-32.29c0-1.25.19-2.27.56-3.06.37-.79.95-1.37,1.74-1.73s1.8-.54,3.03-.54h22.97c1.39,0,2.42.31,3.09.92s1.01,1.42,1.01,2.42-.34,1.83-1.01,2.45-1.7.92-3.09.92Z" style="stroke: #000; stroke-miterlimit: 10;"/>
    <path d="m1090.03,475.01l-2.05-5.39h-17.46l-2.05,5.51c-.8,2.15-1.48,3.6-2.05,4.35-.57.75-1.49,1.13-2.78,1.13-1.09,0-2.06-.4-2.9-1.2-.84-.8-1.26-1.71-1.26-2.72,0-.59.1-1.19.29-1.82.19-.62.52-1.49.97-2.61l10.99-27.89c.31-.8.69-1.76,1.13-2.89s.91-2.06,1.41-2.8,1.15-1.34,1.96-1.8c.81-.46,1.81-.69,3-.69s2.22.23,3.03.69c.81.46,1.46,1.05,1.96,1.77s.92,1.5,1.26,2.33c.34.83.78,1.94,1.3,3.33l11.22,27.71c.88,2.11,1.32,3.64,1.32,4.6s-.42,1.91-1.25,2.74c-.83.83-1.83,1.25-3,1.25-.68,0-1.27-.12-1.76-.37-.49-.24-.9-.58-1.23-1-.33-.42-.69-1.06-1.07-1.93s-.71-1.64-.98-2.3Zm-17.23-11.92h12.83l-6.47-17.72-6.36,17.72Z" style="stroke: #000; stroke-miterlimit: 10;"/>
    <path d="m1128.32,444.1h-9.49v31.2c0,1.8-.4,3.13-1.2,4-.8.87-1.84,1.3-3.11,1.3s-2.34-.44-3.15-1.32c-.81-.88-1.22-2.21-1.22-3.98v-31.2h-9.49c-1.48,0-2.59-.33-3.31-.98-.72-.65-1.08-1.52-1.08-2.59s.38-1.99,1.13-2.64c.75-.64,1.84-.97,3.27-.97h27.66c1.5,0,2.62.33,3.35,1,.73.66,1.1,1.53,1.1,2.61s-.37,1.94-1.11,2.59c-.74.65-1.86.98-3.34.98Z" style="stroke: #000; stroke-miterlimit: 10;"/>
    <path d="m1138.28,475.3v-33.84c0-1.76.4-3.08,1.2-3.96.8-.88,1.83-1.32,3.11-1.32s2.37.44,3.18,1.3c.81.87,1.22,2.19,1.22,3.97v33.84c0,1.78-.41,3.11-1.22,3.98-.81.88-1.87,1.32-3.18,1.32s-2.28-.44-3.09-1.33c-.81-.89-1.22-2.21-1.22-3.97Z" style="stroke: #000; stroke-miterlimit: 10;"/>
    <path d="m1168.04,441.41l16.73,25.31v-25.55c0-1.66.36-2.91,1.07-3.74.71-.83,1.67-1.25,2.89-1.25s2.24.42,2.96,1.25c.72.83,1.08,2.08,1.08,3.74v33.78c0,3.77-1.56,5.65-4.69,5.65-.78,0-1.48-.11-2.11-.34-.63-.22-1.21-.58-1.76-1.07-.55-.49-1.05-1.06-1.52-1.71s-.94-1.32-1.41-2.01l-16.32-25.02v25.17c0,1.64-.38,2.88-1.14,3.72s-1.74,1.26-2.93,1.26-2.22-.42-2.96-1.27c-.74-.85-1.11-2.08-1.11-3.71v-33.13c0-1.41.16-2.51.47-3.31.37-.88.99-1.6,1.85-2.15.86-.56,1.79-.83,2.78-.83.78,0,1.45.13,2.01.38.56.25,1.04.6,1.46,1.03.42.43.85.99,1.29,1.67s.89,1.4,1.36,2.14Z" style="stroke: #000; stroke-miterlimit: 10;"/>
    <path d="m1241.52,462.41v8.23c0,1.09-.11,1.97-.32,2.62-.22.65-.61,1.25-1.19,1.77-.58.53-1.31,1.04-2.21,1.52-2.6,1.41-5.1,2.43-7.5,3.08s-5.02.97-7.85.97c-3.3,0-6.31-.51-9.02-1.52-2.71-1.02-5.03-2.49-6.94-4.42-1.92-1.93-3.38-4.28-4.41-7.03s-1.54-5.83-1.54-9.23.5-6.4,1.49-9.17,2.46-5.13,4.39-7.06,4.29-3.41,7.06-4.44c2.77-1.03,5.92-1.54,9.43-1.54,2.89,0,5.45.39,7.68,1.16s4.03,1.74,5.42,2.92c1.39,1.17,2.43,2.41,3.13,3.72s1.05,2.47,1.05,3.49c0,1.09-.41,2.03-1.22,2.8-.81.77-1.78,1.16-2.92,1.16-.63,0-1.23-.15-1.8-.44-.58-.29-1.06-.7-1.45-1.23-1.07-1.68-1.98-2.95-2.72-3.81-.74-.86-1.74-1.58-3-2.17s-2.87-.88-4.82-.88-3.81.35-5.39,1.04-2.93,1.7-4.06,3.02c-1.12,1.32-1.98,2.93-2.58,4.85-.6,1.91-.89,4.03-.89,6.36,0,5.04,1.16,8.92,3.47,11.63s5.54,4.07,9.68,4.07c2.01,0,3.9-.26,5.67-.79,1.77-.53,3.56-1.28,5.38-2.26v-6.97h-6.74c-1.62,0-2.85-.24-3.68-.73-.83-.49-1.25-1.32-1.25-2.49,0-.96.35-1.75,1.04-2.37.69-.62,1.64-.94,2.83-.94h9.87c1.21,0,2.24.11,3.08.32.84.21,1.52.69,2.04,1.44.52.74.78,1.86.78,3.34Z" style="stroke: #000; stroke-miterlimit: 10;"/>
    <path d="m1279.31,473.4l-6.88-27.36v29.65c0,1.64-.37,2.87-1.1,3.69s-1.7,1.23-2.92,1.23-2.13-.41-2.87-1.22c-.74-.81-1.11-2.05-1.11-3.71v-33.98c0-1.88.49-3.14,1.46-3.79.98-.65,2.29-.98,3.96-.98h2.7c1.62,0,2.8.15,3.53.44s1.27.82,1.63,1.58.75,2,1.2,3.72l6.24,23.53,6.24-23.53c.45-1.72.85-2.96,1.2-3.72s.89-1.29,1.63-1.58,1.91-.44,3.53-.44h2.7c1.66,0,2.98.33,3.96.98.98.65,1.46,1.92,1.46,3.79v33.98c0,1.64-.37,2.87-1.1,3.69s-1.71,1.23-2.94,1.23c-1.15,0-2.1-.41-2.84-1.23-.74-.82-1.11-2.05-1.11-3.69v-29.65l-6.88,27.36c-.45,1.78-.82,3.08-1.1,3.91-.28.83-.81,1.59-1.57,2.27s-1.82,1.03-3.16,1.03c-1.02,0-1.88-.22-2.58-.66s-1.25-1-1.64-1.68c-.39-.68-.7-1.44-.92-2.27-.22-.83-.45-1.69-.69-2.59Z" style="stroke: #000; stroke-miterlimit: 10;"/>
    <path d="m1343.09,443.64h-19.6v10.55h18.05c1.33,0,2.32.3,2.97.89.65.6.98,1.38.98,2.36s-.32,1.77-.97,2.39-1.64.92-2.99.92h-18.05v12.22h20.27c1.37,0,2.4.32,3.09.95.69.63,1.04,1.48,1.04,2.53s-.35,1.84-1.04,2.48c-.69.63-1.72.95-3.09.95h-23.64c-1.89,0-3.26-.42-4.09-1.26-.83-.84-1.25-2.2-1.25-4.07v-32.29c0-1.25.19-2.27.56-3.06.37-.79.95-1.37,1.74-1.73s1.8-.54,3.03-.54h22.97c1.39,0,2.42.31,3.09.92s1.01,1.42,1.01,2.42-.34,1.83-1.01,2.45-1.7.92-3.09.92Z" style="stroke: #000; stroke-miterlimit: 10;"/>
    <path d="m1369.31,473.4l-6.88-27.36v29.65c0,1.64-.37,2.87-1.1,3.69s-1.7,1.23-2.92,1.23-2.13-.41-2.87-1.22c-.74-.81-1.11-2.05-1.11-3.71v-33.98c0-1.88.49-3.14,1.46-3.79.98-.65,2.29-.98,3.96-.98h2.7c1.62,0,2.8.15,3.53.44s1.27.82,1.63,1.58.75,2,1.2,3.72l6.24,23.53,6.24-23.53c.45-1.72.85-2.96,1.2-3.72s.89-1.29,1.63-1.58,1.91-.44,3.53-.44h2.7c1.66,0,2.98.33,3.96.98.98.65,1.46,1.92,1.46,3.79v33.98c0,1.64-.37,2.87-1.1,3.69s-1.71,1.23-2.94,1.23c-1.15,0-2.1-.41-2.84-1.23-.74-.82-1.11-2.05-1.11-3.69v-29.65l-6.88,27.36c-.45,1.78-.82,3.08-1.1,3.91-.28.83-.81,1.59-1.57,2.27s-1.82,1.03-3.16,1.03c-1.02,0-1.88-.22-2.58-.66s-1.25-1-1.64-1.68c-.39-.68-.7-1.44-.92-2.27-.22-.83-.45-1.69-.69-2.59Z" style="stroke: #000; stroke-miterlimit: 10;"/>
    <path d="m1423.69,436.19c4.45,0,8.28.9,11.47,2.71,3.19,1.81,5.61,4.38,7.25,7.71s2.46,7.24,2.46,11.73c0,3.32-.45,6.34-1.35,9.05-.9,2.71-2.25,5.07-4.04,7.06-1.8,1.99-4,3.52-6.62,4.57-2.62,1.05-5.62,1.58-8.99,1.58s-6.37-.54-9.02-1.63c-2.66-1.08-4.87-2.61-6.65-4.58-1.78-1.97-3.12-4.35-4.03-7.12s-1.36-5.77-1.36-8.99.47-6.33,1.42-9.08c.95-2.75,2.32-5.1,4.12-7.03,1.8-1.93,3.98-3.41,6.56-4.44s5.51-1.54,8.79-1.54Zm12.36,22.09c0-3.14-.51-5.87-1.52-8.17-1.02-2.3-2.47-4.05-4.35-5.23-1.89-1.18-4.05-1.77-6.49-1.77-1.74,0-3.34.33-4.82.98-1.48.65-2.74,1.61-3.81,2.86-1.07,1.25-1.9,2.85-2.52,4.79s-.92,4.13-.92,6.55.31,4.65.92,6.62,1.48,3.61,2.61,4.91c1.12,1.3,2.41,2.27,3.87,2.92,1.45.64,3.05.97,4.79.97,2.23,0,4.27-.56,6.14-1.67,1.86-1.11,3.35-2.83,4.45-5.16,1.1-2.32,1.66-5.19,1.66-8.58Z" style="stroke: #000; stroke-miterlimit: 10;"/>
    <path d="m1464,461.51h-3.05v13.8c0,1.82-.4,3.15-1.2,4.01-.8.86-1.85,1.29-3.13,1.29-1.39,0-2.46-.45-3.22-1.35s-1.14-2.22-1.14-3.96v-33.05c0-1.88.42-3.23,1.26-4.07.84-.84,2.2-1.26,4.07-1.26h14.15c1.95,0,3.62.08,5.01.25,1.39.17,2.64.5,3.75,1.01,1.35.57,2.54,1.38,3.57,2.43,1.04,1.05,1.82,2.28,2.36,3.68.54,1.4.81,2.88.81,4.44,0,3.2-.9,5.76-2.71,7.68-1.81,1.91-4.55,3.27-8.22,4.07,1.54.82,3.02,2.03,4.42,3.63s2.66,3.31,3.76,5.11c1.1,1.81,1.96,3.44,2.58,4.89s.92,2.46.92,3-.18,1.13-.54,1.68c-.36.56-.85,1-1.48,1.32-.63.32-1.35.48-2.17.48-.98,0-1.8-.23-2.46-.69-.66-.46-1.24-1.04-1.71-1.74-.48-.7-1.13-1.74-1.95-3.11l-3.49-5.8c-1.25-2.13-2.37-3.75-3.35-4.86-.99-1.11-1.99-1.88-3-2.29-1.02-.41-2.3-.62-3.84-.62Zm4.98-18.05h-8.03v11.81h7.79c2.09,0,3.85-.18,5.27-.54,1.42-.36,2.51-.98,3.27-1.85.75-.87,1.13-2.07,1.13-3.59,0-1.19-.3-2.24-.91-3.15-.61-.91-1.45-1.59-2.52-2.04-1.02-.43-3.02-.64-6.01-.64Z" style="stroke: #000; stroke-miterlimit: 10;"/>
    <path d="m1495.82,475.3v-33.84c0-1.76.4-3.08,1.2-3.96s1.84-1.32,3.11-1.32,2.37.44,3.18,1.3c.81.87,1.22,2.19,1.22,3.97v33.84c0,1.78-.41,3.11-1.22,3.98s-1.87,1.32-3.18,1.32-2.28-.44-3.09-1.33-1.22-2.21-1.22-3.97Z" style="stroke: #000; stroke-miterlimit: 10;"/>
    <path d="m1542.55,443.64h-19.6v10.55h18.05c1.33,0,2.32.3,2.97.89s.98,1.38.98,2.36-.32,1.77-.97,2.39-1.64.92-2.99.92h-18.05v12.22h20.27c1.37,0,2.4.32,3.09.95s1.04,1.48,1.04,2.53-.35,1.84-1.04,2.48-1.72.95-3.09.95h-23.64c-1.89,0-3.26-.42-4.09-1.26s-1.25-2.2-1.25-4.07v-32.29c0-1.25.19-2.27.56-3.06s.95-1.37,1.74-1.73,1.8-.54,3.03-.54h22.97c1.39,0,2.42.31,3.09.92s1.01,1.42,1.01,2.42-.34,1.83-1.01,2.45-1.7.92-3.09.92Z" style="stroke: #000; stroke-miterlimit: 10;"/>
    <path d="m1586.9,466.98c0,2.6-.67,4.93-2.01,7s-3.3,3.69-5.87,4.86-5.63,1.76-9.17,1.76c-4.24,0-7.73-.8-10.49-2.4-1.95-1.15-3.54-2.69-4.76-4.61s-1.83-3.79-1.83-5.61c0-1.05.37-1.96,1.1-2.71s1.67-1.13,2.8-1.13c.92,0,1.69.29,2.33.88s1.18,1.46,1.63,2.61c.55,1.37,1.14,2.51,1.77,3.43s1.53,1.67,2.68,2.27,2.67.89,4.54.89c2.58,0,4.67-.6,6.28-1.8s2.42-2.7,2.42-4.5c0-1.43-.43-2.58-1.3-3.47s-1.99-1.57-3.37-2.04-3.22-.97-5.52-1.49c-3.09-.72-5.67-1.57-7.75-2.53s-3.73-2.29-4.95-3.96-1.83-3.75-1.83-6.23.64-4.46,1.93-6.3,3.15-3.25,5.6-4.23c2.44-.99,5.31-1.48,8.61-1.48,2.64,0,4.92.33,6.84.98s3.52,1.52,4.79,2.61,2.2,2.22,2.78,3.41.88,2.35.88,3.49c0,1.04-.37,1.97-1.1,2.8s-1.65,1.25-2.74,1.25c-1,0-1.75-.25-2.27-.75s-1.08-1.31-1.68-2.45c-.78-1.62-1.72-2.89-2.81-3.79s-2.85-1.36-5.27-1.36c-2.25,0-4.06.49-5.43,1.48s-2.07,2.17-2.07,3.56c0,.86.23,1.6.7,2.23s1.11,1.16,1.93,1.61,1.65.8,2.49,1.05,2.23.62,4.16,1.11c2.42.57,4.61,1.19,6.58,1.88s3.63,1.51,5.01,2.49,2.45,2.21,3.22,3.71,1.16,3.33,1.16,5.49Z" style="stroke: #000; stroke-miterlimit: 10;"/>
  </g>
</svg>