<svg class="w-full h-full" fill="none" xmlns="http://www.w3.org/2000/svg" viewBox="0 0 13 11">
                                       <path d="M11.69 3.063v.328c0 3.257-2.461 6.984-6.985 6.984A6.857 6.857 0 0 1 .932 9.273c.187.024.375.047.586.047a4.948 4.948 0 0 0 3.046-1.054 2.45 2.45 0 0 1-2.296-1.711c.164.023.304.047.468.047.211 0 .446-.047.633-.094A2.464 2.464 0 0 1 1.4 4.094V4.07c.329.188.727.282 1.125.305a2.421 2.421 0 0 1-1.101-2.04c0-.468.117-.89.328-1.241a7.14 7.14 0 0 0 5.086 2.578 2.312 2.312 0 0 1-.07-.563A2.46 2.46 0 0 1 9.228.65c.704 0 1.337.28 1.805.773a5.198 5.198 0 0 0 1.547-.61 2.404 2.404 0 0 1-1.078 1.36 4.613 4.613 0 0 0 1.406-.375c-.328.492-.75.914-1.218 1.266Z" fill="#1DA1F2"></path>
                                    </svg>